HIERARCHY
ROOT Pelvis
{
	OFFSET 0.000000 0.000000 0.000000
	CHANNELS 6 Xposition Yposition Zposition Xrotation Yrotation Zrotation
	JOINT LeftUpLeg_virtual
	{
		OFFSET 0.000000 0.000000 0.000000
		CHANNELS 3 Xrotation Yrotation Zrotation
		JOINT LeftUpLeg
		{
			OFFSET 8.479700 -4.795502 -0.379100
			CHANNELS 3 Xrotation Yrotation Zrotation
			JOINT LeftLeg
			{
				OFFSET 0.024144 -32.555107 0.112900
				CHANNELS 3 Xrotation Yrotation Zrotation
				JOINT LeftFoot
				{
					OFFSET -0.024144 -32.638630 -3.012600
					CHANNELS 3 Xrotation Yrotation Zrotation
					JOINT LeftToeBase
					{
						OFFSET 0.970200 -13.225400 11.864200
						CHANNELS 3 Xrotation Yrotation Zrotation
						End Site
						{
							OFFSET 0 0 0
						}
					}
				}
			}
		}
	}
	JOINT RightUpLeg_virtual
	{
		OFFSET 0.000000 0.000000 0.000000
		CHANNELS 3 Xrotation Yrotation Zrotation
		JOINT RightUpLeg
		{
			OFFSET -8.479700 -4.795502 -0.379100
			CHANNELS 3 Xrotation Yrotation Zrotation
			JOINT RightLeg
			{
				OFFSET -0.023144 -32.555092 0.112900
				CHANNELS 3 Xrotation Yrotation Zrotation
				JOINT RightFoot
				{
					OFFSET 0.023144 -32.638641 -3.012700
					CHANNELS 3 Xrotation Yrotation Zrotation
					JOINT RightToeBase
					{
						OFFSET -0.970200 -13.225400 11.864200
						CHANNELS 3 Xrotation Yrotation Zrotation
						End Site
						{
							OFFSET 0 0 0
						}
					}
				}
			}
		}
	}
	JOINT Hips_virtual
	{
		OFFSET 0.000000 0.000000 0.000000
		CHANNELS 3 Xrotation Yrotation Zrotation
		JOINT Hips
		{
			OFFSET -0.000000 -0.000000 -0.000000
			CHANNELS 3 Xrotation Yrotation Zrotation
			JOINT Spine
			{
				OFFSET 0.000000 7.722000 1.166200
				CHANNELS 3 Xrotation Yrotation Zrotation
				JOINT Spine1
				{
					OFFSET 0.000000 12.024101 0.248800
					CHANNELS 3 Xrotation Yrotation Zrotation
					JOINT Spine2
					{
						OFFSET 0.000000 11.502998 -0.491200
						CHANNELS 3 Xrotation Yrotation Zrotation
						JOINT Neck_virtual
						{
							OFFSET 0.000000 0.000000 0.000000
							CHANNELS 3 Xrotation Yrotation Zrotation
							JOINT Neck
							{
								OFFSET 0.000000 18.430702 -3.123100
								CHANNELS 3 Xrotation Yrotation Zrotation
								JOINT Head
								{
									OFFSET 0.000000 9.051102 1.034000
									CHANNELS 3 Xrotation Yrotation Zrotation
									End Site
									{
										OFFSET 0 0 0
									}
								}
							}
						}
						JOINT LeftShoulder_virtual
						{
							OFFSET 0.000000 0.000000 0.000000
							CHANNELS 3 Xrotation Yrotation Zrotation
							JOINT LeftShoulder
							{
								OFFSET 6.197800 13.665199 -4.064700
								CHANNELS 3 Xrotation Yrotation Zrotation
								JOINT LeftArm
								{
									OFFSET 7.778100 -0.187103 -1.709300
									CHANNELS 3 Xrotation Yrotation Zrotation
									JOINT LeftForeArm
									{
										OFFSET 22.049376 0.000000 0.000000
										CHANNELS 3 Xrotation Yrotation Zrotation
										JOINT LeftHand
										{
											OFFSET 23.009392 0.000000 0.000000
											CHANNELS 3 Xrotation Yrotation Zrotation
											End Site
											{
												OFFSET 0 0 0
											}
										}
									}
								}
							}
						}
						JOINT RightShoulder_virtual
						{
							OFFSET 0.000000 0.000000 0.000000
							CHANNELS 3 Xrotation Yrotation Zrotation
							JOINT RightShoulder
							{
								OFFSET -6.197800 13.665199 -4.064700
								CHANNELS 3 Xrotation Yrotation Zrotation
								JOINT RightArm
								{
									OFFSET -7.778100 -0.187103 -1.709300
									CHANNELS 3 Xrotation Yrotation Zrotation
									JOINT RightForeArm
									{
										OFFSET -22.049376 0.000000 0.000000
										CHANNELS 3 Xrotation Yrotation Zrotation
										JOINT RightHand
										{
											OFFSET -23.009392 0.000000 0.000000
											CHANNELS 3 Xrotation Yrotation Zrotation
											End Site
											{
												OFFSET 0 0 0
											}
										}
									}
								}
							}
						}
					}
				}
			}
		}
	}
}
MOTION
Frames: 10
Frame Time: 0.03333333
0.087327 9.584671 -3.320045 0.000000 0.000000 0.000000 -87.562486 -3.516908 -0.190865 -24.893294 15.312936 -6.359244 26.254393 -6.884059 -9.656249 0.319503 8.341096 6.626044 0.000000 0.000000 0.000000 -87.562486 -3.516908 -0.190865 -5.533024 -10.242540 -1.068564 1.891201 -9.808918 4.827579 14.679951 -3.711582 28.164630 0.000000 0.000000 0.000000 -87.562486 -3.516908 -0.190865 0.000000 0.000000 0.000000 0.645682 1.473169 -1.885062 -2.712463 0.550123 0.069934 0.000000 0.000000 0.000000 -2.709995 0.572754 0.085569 3.954688 -0.162521 0.200794 0.000000 0.000000 0.000000 -2.709995 0.572754 0.085569 1.279308 -13.498956 -1.883384 20.483966 -1.014537 -70.993471 -179.999991 -42.508509 179.999991 0.000000 0.000000 0.000000 -2.709995 0.572754 0.085569 0.515810 6.973515 0.064737 15.875315 6.901679 66.846508 -179.999978 46.911976 179.999978 0.000000 0.000000 0.000000 
0.087587 9.583290 -3.319481 0.000000 0.000000 0.000000 -87.566877 -3.517702 -0.191770 -24.891670 15.312075 -6.357870 26.256514 -6.884132 -9.656580 0.324629 8.335576 6.616021 0.000000 0.000000 0.000000 -87.566877 -3.517702 -0.191770 -5.534987 -10.244618 -1.068167 1.892234 -9.808608 4.826985 14.681198 -3.715392 28.160962 0.000000 0.000000 0.000000 -87.566877 -3.517702 -0.191770 0.000000 0.000000 0.000000 0.652493 1.482294 -1.881038 -2.713526 0.552117 0.068064 0.000000 0.000000 0.000000 -2.711044 0.574704 0.083783 3.956770 -0.164480 0.200224 0.000000 0.000000 0.000000 -2.711044 0.574704 0.083783 1.279891 -13.506574 -1.882615 20.471330 -1.017568 -70.987140 -179.999978 -42.511780 -179.999978 0.000000 0.000000 0.000000 -2.711044 0.574704 0.083783 0.515557 6.970728 0.064774 15.874032 6.887358 66.861173 -179.999964 46.909575 179.999964 0.000000 0.000000 0.000000 
0.088071 9.582169 -3.318741 0.000000 0.000000 0.000000 -87.567130 -3.516979 -0.193607 -24.894738 15.312104 -6.355246 26.259636 -6.885575 -9.657543 0.329348 8.333884 6.609980 0.000000 0.000000 0.000000 -87.567130 -3.516979 -0.193607 -5.536512 -10.246745 -1.067602 1.892474 -9.808200 4.826322 14.682513 -3.718956 28.157330 0.000000 0.000000 0.000000 -87.567130 -3.516979 -0.193607 0.000000 0.000000 0.000000 0.655073 1.488390 -1.875611 -2.714820 0.553227 0.066521 0.000000 0.000000 0.000000 -2.712320 0.575769 0.082299 3.958936 -0.166341 0.200116 0.000000 0.000000 0.000000 -2.712320 0.575769 0.082299 1.280316 -13.511003 -1.881051 20.463069 -1.020423 -70.982461 -179.999964 -42.514905 -179.999964 0.000000 0.000000 0.000000 -2.712320 0.575769 0.082299 0.515696 6.970293 0.064801 15.871032 6.874122 66.875270 -179.999937 46.906276 179.999937 0.000000 0.000000 0.000000 
0.088553 9.581200 -3.317795 0.000000 0.000000 0.000000 -87.564958 -3.514374 -0.195401 -24.900595 15.313096 -6.353176 26.264355 -6.886269 -9.657678 0.332878 8.334281 6.609056 0.000000 0.000000 0.000000 -87.564958 -3.514374 -0.195401 -5.537823 -10.248902 -1.066953 1.892320 -9.807642 4.825611 14.683804 -3.722378 28.153756 0.000000 0.000000 0.000000 -87.564958 -3.514374 -0.195401 0.000000 0.000000 0.000000 0.655140 1.491910 -1.869868 -2.716207 0.553642 0.065173 0.000000 0.000000 0.000000 -2.713704 0.576142 0.080983 3.961072 -0.168044 0.200409 0.000000 0.000000 0.000000 -2.713704 0.576142 0.080983 1.280699 -13.512916 -1.878505 20.458063 -1.023378 -70.979421 -179.999991 -42.518235 -179.999978 0.000000 0.000000 0.000000 -2.713704 0.576142 0.080983 0.516035 6.971516 0.064826 15.867199 6.862418 66.888883 -179.999950 46.902837 179.999964 0.000000 0.000000 0.000000 
0.088794 9.580299 -3.316772 0.000000 0.000000 0.000000 -87.561755 -3.509947 -0.196326 -24.906679 15.314488 -6.352194 26.268832 -6.886079 -9.657835 0.335663 8.334817 6.611047 0.000000 0.000000 0.000000 -87.561755 -3.509947 -0.196326 -5.539499 -10.251100 -1.066372 1.892830 -9.806786 4.824878 14.684529 -3.725755 28.150300 0.000000 0.000000 0.000000 -87.561755 -3.509947 -0.196326 0.000000 0.000000 0.000000 0.653108 1.492087 -1.864454 -2.717587 0.553202 0.064004 0.000000 0.000000 0.000000 -2.715124 0.575667 0.079816 3.962984 -0.169444 0.201217 0.000000 0.000000 0.000000 -2.715124 0.575667 0.079816 1.280972 -13.511730 -1.874325 20.456951 -1.026676 -70.978779 179.999991 -42.522220 -179.999991 0.000000 0.000000 0.000000 -2.715124 0.575667 0.079816 0.516555 6.974773 0.064836 15.862891 6.852973 66.901915 -179.999964 46.899842 179.999964 0.000000 0.000000 0.000000 
0.088593 9.579407 -3.315865 0.000000 0.000000 0.000000 -87.559419 -3.505271 -0.196055 -24.911201 15.315830 -6.352462 26.272724 -6.885598 -9.657836 0.337241 8.335845 6.614436 0.000000 0.000000 0.000000 -87.559419 -3.505271 -0.196055 -5.540950 -10.253310 -1.065820 1.892971 -9.805894 4.824105 14.685322 -3.729018 28.146936 0.000000 0.000000 0.000000 -87.559419 -3.505271 -0.196055 0.000000 0.000000 0.000000 0.649888 1.488784 -1.860077 -2.718919 0.551919 0.062977 0.000000 0.000000 0.000000 -2.716479 0.574362 0.078761 3.964418 -0.170399 0.202552 0.000000 0.000000 0.000000 -2.716479 0.574362 0.078761 1.281235 -13.507487 -1.867823 20.459593 -1.030541 -70.981457 179.999991 -42.527449 -179.999991 0.000000 0.000000 0.000000 -2.716479 0.574362 0.078761 0.517111 6.980268 0.064835 15.858782 6.846178 66.914332 -179.999964 46.897920 179.999964 0.000000 0.000000 0.000000 
0.088019 9.578518 -3.315170 0.000000 0.000000 0.000000 -87.558497 -3.502268 -0.196347 -24.914814 15.316597 -6.351757 26.276498 -6.887117 -9.657462 0.338866 8.337457 6.614270 0.000000 0.000000 0.000000 -87.558497 -3.502268 -0.196347 -5.542420 -10.255558 -1.065210 1.893172 -9.804871 4.823334 14.685899 -3.732253 28.143569 0.000000 0.000000 0.000000 -87.558497 -3.502268 -0.196347 0.000000 0.000000 0.000000 0.646802 1.482718 -1.857129 -2.720165 0.550011 0.062057 0.000000 0.000000 0.000000 -2.717713 0.572448 0.077790 3.965420 -0.170814 0.204288 0.000000 0.000000 0.000000 -2.717713 0.572448 0.077790 1.281622 -13.501138 -1.858548 20.465246 -1.034978 -70.987993 -179.999978 -42.534078 -179.999991 0.000000 0.000000 0.000000 -2.717713 0.572448 0.077790 0.517633 6.987888 0.064817 15.855751 6.841806 66.926087 -179.999950 46.897445 179.999937 0.000000 0.000000 0.000000 
0.087269 9.577679 -3.314781 0.000000 0.000000 0.000000 -87.557363 -3.499446 -0.196437 -24.917761 15.317285 -6.351365 26.278820 -6.887779 -9.656916 0.340009 8.339402 6.615772 0.000000 0.000000 0.000000 -87.557363 -3.499446 -0.196437 -5.543087 -10.257787 -1.064486 1.891791 -9.804140 4.822481 14.687265 -3.735269 28.140081 0.000000 0.000000 0.000000 -87.557363 -3.499446 -0.196437 0.000000 0.000000 0.000000 0.644895 1.475380 -1.855762 -2.721217 0.547887 0.061231 0.000000 0.000000 0.000000 -2.718769 0.570331 0.076904 3.965919 -0.170705 0.206175 0.000000 0.000000 0.000000 -2.718769 0.570331 0.076904 1.282199 -13.494486 -1.846568 20.472490 -1.039489 -70.998403 -179.999964 -42.542045 -179.999964 0.000000 0.000000 0.000000 -2.718769 0.570331 0.076904 0.518004 6.997110 0.064783 15.854606 6.839084 66.937042 180.000005 46.898408 -179.999991 0.000000 0.000000 0.000000 
0.086658 9.576843 -3.314598 0.000000 0.000000 0.000000 -87.556031 -3.496929 -0.196295 -24.920095 15.318002 -6.351570 26.279996 -6.887720 -9.656205 0.340888 8.341580 6.618884 0.000000 0.000000 0.000000 -87.556031 -3.496929 -0.196295 -5.544234 -10.260018 -1.063928 1.891280 -9.803235 4.821684 14.688182 -3.738404 28.136671 0.000000 0.000000 0.000000 -87.556031 -3.496929 -0.196295 0.000000 0.000000 0.000000 0.644782 1.468670 -1.855724 -2.722027 0.546035 0.060520 0.000000 0.000000 0.000000 -2.719600 0.568491 0.076137 3.966114 -0.170213 0.207897 0.000000 0.000000 0.000000 -2.719600 0.568491 0.076137 1.283088 -13.489749 -1.832714 20.479667 -1.043232 -71.011810 179.999978 -42.550641 179.999991 0.000000 0.000000 0.000000 -2.719600 0.568491 0.076137 0.518188 7.006941 0.064738 15.855808 6.837064 66.946946 -179.999978 46.900293 179.999978 0.000000 0.000000 0.000000 
0.086433 9.575966 -3.314522 0.000000 0.000000 0.000000 -87.554658 -3.494765 -0.195991 -24.921810 15.318729 -6.352443 26.279882 -6.887494 -9.655365 0.341805 8.344014 6.622722 0.000000 0.000000 0.000000 -87.554658 -3.494765 -0.195991 -5.544997 -10.262229 -1.063367 1.890069 -9.802536 4.820876 14.689524 -3.741440 28.133180 0.000000 0.000000 0.000000 -87.554658 -3.494765 -0.195991 0.000000 0.000000 0.000000 0.646238 1.464353 -1.856403 -2.722465 0.544884 0.059971 0.000000 0.000000 0.000000 -2.720089 0.567353 0.075555 3.966266 -0.169589 0.209142 0.000000 0.000000 0.000000 -2.720089 0.567353 0.075555 1.284271 -13.488838 -1.818759 20.485288 -1.045115 -71.026113 -179.999978 -42.558697 -179.999978 0.000000 0.000000 0.000000 -2.720089 0.567353 0.075555 0.518146 7.016112 0.064694 15.859107 6.834903 66.955381 -179.999991 46.902369 179.999978 0.000000 0.000000 0.000000 
